<svg version="1" xmlns="http://www.w3.org/2000/svg" width="933.333" height="933.333" viewBox="0 0 700.000000 700.000000"><path d="M0 350v350h700V0H0v350zm238.1-134.1c12.5 7.4 13 24.5.9 34-2.5 2-33.7 25.2-69.3 51.6-35.5 26.4-64.6 48.2-64.6 48.5 0 .3 29.1 22.1 64.6 48.5 79.7 59.2 74 54.6 76.5 60.3 5.4 12.6-2.9 26.5-16.6 27.9-4.3.4-6 0-10.6-2.4-3-1.6-40.7-29.1-83.8-61.2-55.9-41.7-79.1-59.5-80.9-62.3-5-7.5-3.9-19.1 2.5-25 5.8-5.5 157-117.4 162.2-120.1 4.6-2.4 6.4-2.8 10.5-2.4 2.8.3 6.6 1.4 8.6 2.6zm177.4-1c5.9 2.6 10.1 8 11.5 14.5 1 5.1.9 5.9-1.8 12.8-4.2 10.4-113.9 232.6-116.8 236.5-10.4 13.8-31.8 9-35.4-8-1-4.9-.9-6 1.4-11.8 1.3-3.5 27.8-57.9 58.8-120.9 60-121.7 59.9-121.5 68-123.9 5.2-1.5 9.9-1.2 14.3.8zm65.6.9c3 1.5 40.6 29 83.7 61.1 55.9 41.7 79.1 59.5 80.9 62.3 5 7.5 3.9 19.1-2.5 25-5.8 5.5-157 117.4-162.2 120.1-4.6 2.4-6.4 2.8-10.5 2.4-14.3-1.4-22.4-15.5-16.3-28.3 2.6-5.6-2.9-1.3 76.1-59.9 35.5-26.4 64.6-48.2 64.6-48.5 0-.3-29.1-22.1-64.6-48.5-35.6-26.4-66.9-49.7-69.6-51.8-10.5-8.3-11.6-21.6-2.6-30.6 6.7-6.7 14.3-7.8 23-3.3z"/></svg>